<!DOCTYPE svg PUBLIC "-//W3C//DTD SVG 1.1//EN" "http://www.w3.org/Graphics/SVG/1.1/DTD/svg11.dtd">
<!-- Uploaded to: SVG Repo, www.svgrepo.com, Transformed by: SVG Repo Mixer Tools -->
<svg fill="#ffffff" height="800px" width="800px" version="1.1" id="Layer_1" xmlns="http://www.w3.org/2000/svg" xmlns:xlink="http://www.w3.org/1999/xlink" viewBox="0 0 512 512" xml:space="preserve">
<g id="SVGRepo_bgCarrier" stroke-width="0"/>
<g id="SVGRepo_tracerCarrier" stroke-linecap="round" stroke-linejoin="round"/>
<g id="SVGRepo_iconCarrier"> <g> <g> <g> <path d="M388.38,76.655H262.244c-6.089,0-11.026,4.938-11.026,11.026v58.436c0,6.089,4.938,11.026,11.026,11.026H443.47 c4.401,0,8.38-2.617,10.124-6.657c1.743-4.041,0.917-8.732-2.101-11.933l-55.091-58.436 C394.319,77.906,391.415,76.655,388.38,76.655z M273.271,135.091V98.708h110.35l34.3,36.383H273.271z"/> <path d="M508.996,135.245l-93.559-99.238c-2.083-2.21-4.985-3.463-8.023-3.463H208.609c-3.039,0-5.943,1.255-8.026,3.467 l-5.107,5.417L168.407,14.36c-2.108-2.107-4.945-3.284-7.96-3.229c-2.98,0.044-5.816,1.293-7.861,3.462l-25.716,27.279 l-27.81-27.81c-2.067-2.067-4.873-3.23-7.797-3.23H11.026C4.937,10.834,0,15.772,0,21.86s4.937,11.026,11.026,11.026h75.671 l25.04,25.041L86.198,85.02c-4.091,4.339-3.99,11.143,0.226,15.361l27.524,27.524c-0.883,0.937-6.92,7.339-6.92,7.339 c-1.93,2.045-3.005,4.752-3.005,7.564V490.14c0,6.089,4.936,11.026,11.026,11.026h385.924c6.089,0,11.026-4.938,11.026-11.026 V142.808C512,139.997,510.925,137.291,508.996,135.245z M109.589,92.358l51.255-54.373L180.34,57.48 c-17.093,18.125-34.177,36.247-51.256,54.372L109.589,92.358z M489.947,479.114H126.076V147.187l87.292-92.589h189.289 l87.291,92.59V479.114z"/> <path d="M164.666,181.407L164.666,181.407c-6.09,0-11.026,4.938-11.026,11.026v248.094c0,6.089,4.937,11.026,11.026,11.026 h286.687c6.089,0,11.026-4.938,11.026-11.026V192.433c0-6.089-4.938-11.026-11.026-11.026H164.666z M440.325,413.907 L407.05,380.63c-4.307-4.305-11.287-4.305-15.595,0c-4.306,4.306-4.306,11.288,0,15.595l33.277,33.277H191.286l33.277-33.277 c4.306-4.306,4.306-11.288,0-15.595c-4.306-4.305-11.288-4.305-15.595,0l-33.277,33.277V219.053l33.277,33.277 c2.154,2.152,4.975,3.23,7.797,3.23s5.644-1.077,7.797-3.23c4.306-4.306,4.306-11.288,0-15.595l-33.275-33.275h233.446 l-33.277,33.277c-4.306,4.306-4.306,11.288,0,15.595c2.153,2.152,4.975,3.23,7.797,3.23c2.822,0,5.643-1.077,7.797-3.23 l33.277-33.277V413.907z"/> <path d="M360.583,267.608l-1.103,1.103c-4.306,4.306-4.306,11.288,0,15.595c2.153,2.152,4.975,3.23,7.797,3.23 c2.822,0,5.643-1.077,7.797-3.23l1.103-1.103c4.306-4.306,4.306-11.288,0-15.595C371.87,263.303,364.89,263.303,360.583,267.608z "/> </g> </g> </g> </g>
</svg>